
<!-- Generator: Adobe Illustrator 27.5.0, SVG Export Plug-In . SVG Version: 6.00 Build 0)  -->
<svg version="1.1" xmlns="http://www.w3.org/2000/svg" xmlns:xlink="http://www.w3.org/1999/xlink" x="0px" y="0px"
	 viewBox="0 0 500 500" style="enable-background:new 0 0 500 500;" xml:space="preserve">

    <g id="OBJECTS">
	<g style="stroke:pink;">
		<defs>
			<rect id="SVGID_1_" width="500" height="500"/>
		</defs>
		<clipPath id="SVGID_00000000931957945591507700000012580707659149037217_">
			<use xlink:href="#SVGID_1_"  style="overflow:visible;"/>
		</clipPath>
		<g style="stroke:pink;background-color:white;clip-path:url(#SVGID_00000000931957945591507700000012580707659149037217_);">
			<path d="M120.448,527.395c0.748-6.203,7.461-70.406,8.262-76.602c0.79-6.115,1.516-12.245,2.575-18.315
				c0.772-4.426-0.662-8.05-3.278-11.336c-1.287-1.616-2.873-3.026-4.466-4.36c-6.277-5.254-13.074-9.779-19.944-14.215
				c-6.201-4.005-12.424-8.015-18.326-12.439c-16.942-12.698-27.776-29.705-33.815-49.798c-3.824-12.724-5.064-25.893-5.55-39.131
				c-0.012-0.329,0.095-0.663,0.188-1.265c0.538,0.287,1.179,0.413,1.278,0.715c1.71,5.259,5.895,7.439,10.837,8.899
				c5.088,1.503,10.156,3.087,15.145,4.891c8.124,2.937,16.1,6.387,23.37,11.084c16.628,10.743,28.316,25.172,32.779,44.873
				c2.004,8.848,3.079,17.805,3.494,26.847c0.231,5.031,0.286,10.07,0.418,15.105c0.024,0.93,0.036,1.86,0.249,2.812
				c10.783-60.153,23.991-119.746,40.132-178.686c-0.355-0.192-0.293-0.159-0.648-0.351c-0.61,0.682-1.223,1.36-1.828,2.045
				c-3.171,3.593-6.577,6.904-10.526,9.674c-5.7,3.999-12.205,5.284-18.916,5.92c-2.59,0.245-5.204,0.277-7.809,0.32
				c-12.313,0.201-23.314-4.137-33.815-10.009c-4.373-2.445-8.56-5.222-12.824-7.862c-2.757-1.707-5.181-3.894-7.186-6.442
				c-3.885-4.937-7.271-10.158-9.855-15.922c-1.844-4.115-4.306-7.964-6.015-12.128c-1.771-4.317-3.059-8.843-4.384-13.329
				c-1.007-3.41-1.671-6.92-2.615-10.35c-1.512-5.494-1.956-10.927,0.327-16.34c1.725-4.09,3.583-5.508,7.979-5.184
				c3.359,0.248,6.773,0.686,10,1.609c9.167,2.621,18.496,2.626,27.9,2.518c11.024-0.126,22.054,0.051,33.079,0.237
				c5.37,0.09,10.734,0.498,16.634,0.788c-1.079-0.383-1.699-0.646-2.338-0.824c-7.516-2.093-14.901-4.655-21.811-8.279
				c-11.222-5.885-22.828-10.747-34.84-14.78c-6.728-2.259-13.206-5.308-19.679-8.26c-4.624-2.109-8.519-5.345-12.011-9.047
				c-5.705-6.047-7.465-13.367-6.832-21.409c0.25-3.172,1.738-5.824,4.272-7.774c1.579-1.215,3.27-2.287,4.938-3.381
				c3.194-2.095,6.428-4.128,9.605-6.246c2.789-1.859,5.031-4.247,6.674-7.194c3.125-5.605,6.955-10.569,12.408-14.173
				c3.825-2.528,7.963-4.27,12.375-5.324c4.535-1.083,8.98-0.351,13.299,1.25c4.757,1.763,9.191,4.174,13.23,7.214
				c5.618,4.23,11.289,8.423,16.588,13.034c7.955,6.922,13.545,15.557,16.993,25.528c5.647,16.333,11.606,32.559,18.271,48.503
				c1.633,3.907,3.191,7.845,4.784,11.769c0.2-0.054,0.401-0.109,0.601-0.163c-0.568-2.527-1.189-5.044-1.694-7.584
				c-2.794-14.045-8.485-27.156-12.985-40.655c-3.343-10.027-5.101-20.396-5.084-30.996c0.011-7.03,0.132-14.065,0.455-21.086
				c0.228-4.957,1.089-9.862,3.272-14.396c4.215-8.756,10.977-14.274,20.75-15.492c3.153-0.393,6.43-0.234,9.606,0.095
				c10.346,1.071,20.043,4.098,28.703,10.071c3.075,2.121,6.26,4.083,9.398,6.111c3.41,2.204,7.155,3.487,11.147,4.165
				c2.822,0.479,5.64,1.019,8.419,1.698c6.518,1.593,11.349,5.559,14.774,11.192c3.255,5.353,5.148,11.157,5.16,17.526
				c0.008,4.081,0.445,8.163,0.386,12.241c-0.08,5.51-1.927,12.01-4.909,18.507c0.597-0.21,1.057-0.292,1.433-0.515
				c9.502-5.647,19.866-9.084,30.477-11.871c3.61-0.948,7.241-1.819,10.88-2.649c3.549-0.81,7.107-0.642,10.551,0.484
				c4.579,1.497,8.868,3.64,12.424,6.938c1.369,1.269,2.628,2.853,3.388,4.54c1.422,3.153,2.587,6.443,3.599,9.755
				c1.776,5.811,3.437,11.66,5.002,17.532c2.356,8.84,2.714,17.837,1.705,26.896c-0.336,3.017-0.726,6.042-1.349,9.009
				c-1.173,5.583-4.064,10.043-8.875,13.295c-8.768,5.925-17.931,10.951-28.367,13.29c-4.846,1.086-9.718,1.822-14.716,1.568
				c-3.553-0.181-7.116-0.149-10.673-0.259c-6.174-0.192-12.298-0.779-18.267-2.496c-0.394-0.113-0.808-0.155-1.314,0.031
				c0.324,0.216,0.63,0.464,0.973,0.643c12.834,6.693,24.641,14.981,36.291,23.496c4.417,3.228,8.708,6.643,12.886,10.175
				c2.173,1.837,4.061,4.039,5.925,6.208c4.255,4.952,2.825,10.499-0.714,14.442c-4.818,5.367-10.34,9.934-17.12,12.939
				c-8.175,3.623-16.183,7.603-24.758,10.26c-7.78,2.41-15.738,3.529-23.865,3.691c-6.441,0.128-12.86-0.155-19.213-1.169
				c-9.483-1.514-18.703-4.199-27.275-8.458c-9.458-4.699-15.529-12.359-17.128-23.116c-0.753-5.07-1.703-10.116-2.267-15.206
				c-0.65-5.868-0.924-11.777-1.457-17.659c-0.277-3.062-0.761-6.105-1.587-9.188c-0.299,0.866-0.646,1.719-0.89,2.6
				c-4.095,14.818-8.019,29.684-12.296,44.449c-7.693,26.561-13.252,53.594-18.74,80.671c-5.177,25.541-9.583,51.213-14.343,76.826
				c-2.458,13.229-5.531,26.343-8.26,39.523c-1.25,6.037-8.347,70.101-9.51,76.156c-0.518,0.059-1.036,0.118-1.555,0.176
				c0.068-0.6,0.096-1.208,0.21-1.8c1.395-7.248,8.745-72.502,10.228-79.732c2.74-13.355,6.015-26.617,8.265-40.053
				c5.796-34.615,12.959-68.959,19.838-103.359c3.476-17.385,8.278-34.45,13.068-51.509c4.719-16.806,9.497-33.595,14.207-50.403
				c0.46-1.643,0.625-3.369,0.927-5.057c-1.963,2.366-2.84,5.156-3.669,7.955c-1.035,3.495-1.818,7.074-3.025,10.506
				c-2.158,6.134-5.674,11.522-9.821,16.492c-1.232,1.477-2.113,3.212-2.58,5.079c-1.579,6.301-3.268,12.575-4.921,18.858
				c-15.451,58.747-28.626,117.982-37.892,178.042c-1.932,12.525-9.384,83.121-11.052,95.687
				C121.485,527.278,120.967,527.336,120.448,527.395z M183.966,157.788c0.373,0.846,0.747,1.692,1.12,2.538
				c0.168-0.051,0.336-0.103,0.503-0.154c0.036-0.535,0.072-1.07,0.108-1.605c-0.183-0.428-0.367-0.855-0.55-1.283
				c-0.952-2.608-1.798-5.26-2.872-7.816c-6.288-14.973-11.956-30.177-17.119-45.573c-3.707-11.055-9.941-20.448-18.899-27.899
				c-5.002-4.161-10.244-8.045-15.508-11.875c-3.871-2.816-8.099-5.065-12.66-6.614c-3.763-1.278-7.627-1.906-11.532-0.976
				c-4.587,1.092-8.874,2.919-12.763,5.688c-4.416,3.144-7.821,7.136-10.371,11.86c-2.29,4.243-5.488,7.564-9.55,10.106
				c-2.869,1.796-5.729,3.605-8.571,5.441c-1.384,0.894-2.746,1.827-4.07,2.808c-2.291,1.698-3.61,4.024-3.828,6.841
				c-0.586,7.593,1.08,14.5,6.493,20.181c3.323,3.488,7.084,6.386,11.361,8.632c6.634,3.485,13.556,6.311,20.667,8.593
				c10.619,3.408,20.83,7.712,30.73,12.828c8.98,4.64,18.389,8.167,28.188,10.716c3.847,1.001,7.71,2.235,11.274,3.965
				c8.624,4.187,16.606,9.416,23.661,15.981c0.709,0.66,1.658,1.063,2.673,1.697c0.013,0.262-0.061,0.793,0.09,1.249
				c0.159,0.478,0.558,0.872,0.813,1.324c1.018,1.8,0.721,2.442-1.266,2.855c-1.014,0.211-2.029,0.429-3.025,0.708
				c-6.32,1.772-12.119,4.645-17.527,8.341c-0.803,0.549-1.669,1.007-2.505,1.507c6.731-5.684,14.488-9.255,22.968-11.443
				c-11.225-1.791-21.877,0.957-32.494,4.023c9.897-4.435,20.287-6.07,31.455-5.324c-0.685-0.807-1.047-1.233-1.409-1.659
				l-0.031,0.043c0.553-1.253-0.46-1.606-1.22-2.06c-4.669-2.783-9.708-4.435-15.112-5.06c-9.325-1.079-18.407,0.605-27.493,2.301
				l0.056,0.03c0.399-0.272,0.762-0.679,1.203-0.796c5.215-1.395,10.537-2.163,15.914-2.517c7.177-0.472,14.213,0.132,20.923,2.997
				c0.397,0.169,0.865,0.172,1.595,0.306c-1.912-2.334-4.297-2.87-6.716-3.191c-8.191-1.089-16.419-1.508-24.675-1.049
				c-6.354,0.354-12.588,1.499-18.732,3.118c-9.207,2.426-18.108,5.674-25.814,11.397c-6.267,4.653-12.226,9.721-18.328,14.595
				c-0.304,0.243-0.676,0.401-1.066,0.628c-0.338-1.53-0.394-1.595,0.657-2.492c6.802-5.811,13.512-11.781,21.258-16.323
				c15.533-9.107,32.465-12.907,50.369-12.71c3.102,0.034,6.201,0.213,9.302,0.325c0.006-0.198,0.011-0.395,0.017-0.593
				c-13.337-2.598-26.783-1.898-40.282-0.947c12.459-2.57,24.942-2.649,37.507-0.982c-0.858-0.536-1.734-0.858-2.635-1.073
				c-7.272-1.729-14.652-2.745-22.095-3.367c-0.501-0.042-0.975-0.422-1.461-0.645l-0.039,0.043
				c9.173-0.086,18.144,1.235,26.931,3.851c0.221,0.066,0.484-0.01,0.906-0.027c-0.296-0.266-0.434-0.471-0.625-0.551
				c-5.697-2.382-11.419-4.766-17.652-5.244c-6.488-0.498-12.992-0.925-19.495-1.064c-9.721-0.208-19.45-0.269-29.172-0.147
				c-9.309,0.117-18.553,0.189-27.648-2.404c-3.556-1.014-7.332-1.315-11.029-1.753c-2.286-0.271-4.011,0.816-5.042,2.935
				c-1.961,4.032-2.722,8.249-1.734,12.654c1.177,5.251,2.498,10.47,3.751,15.704c1.528,6.377,3.975,12.38,7.19,18.094
				c1.36,2.417,2.556,4.935,3.707,7.461c2.619,5.748,6.211,10.85,10.335,15.578c1.24,1.421,2.751,2.685,4.341,3.704
				c4.901,3.14,9.813,6.282,14.882,9.137c7.853,4.421,16.206,7.696,25.197,8.722c4.625,0.528,9.368,0.331,14.038,0.088
				c8.857-0.462,16.776-3.338,23.312-9.625c5.348-5.145,9.969-10.901,14.466-16.759c4.438-5.781,7.727-12.154,9.238-19.365
				c0.356-1.696,0.898-3.355,1.395-5.019c1.686-5.648,4.103-10.864,8.779-14.731l-0.07,0.072c1.342-0.429,2.664-0.877,2.352-2.742
				c2.713,0.743,3.203,0.402,4.06-2.625c-1.964-1.589-2.318-2.339-1.536-3.559c0.318-0.496,0.838-1.215,1.268-1.216
				c0.955-0.003,1.911,0.383,2.943,0.629c0.448-0.675,0.918-1.402,1.406-2.116c4.515-6.608,9.263-13.048,14.765-18.869
				c13.742-14.538,29.478-26.684,45.971-37.884c3.359-2.281,5.895-5.18,7.369-8.864c1.777-4.441,3.113-9.075,3.166-13.902
				c0.05-4.511-0.353-9.025-0.377-13.538c-0.032-5.75-1.845-10.961-4.735-15.784c-3.194-5.33-7.688-9.177-13.891-10.652
				c-2.616-0.622-5.251-1.196-7.906-1.612c-4.446-0.697-8.575-2.175-12.36-4.603c-2.926-1.877-5.897-3.691-8.743-5.682
				c-9.708-6.791-20.628-9.788-32.299-10.413c-11.275-0.604-20.455,4.835-24.874,14.961c-1.268,2.906-2.081,6.101-2.555,9.246
				c-1.443,9.569-1.324,19.225-0.896,28.86c0.509,11.461,3.033,22.52,7.043,33.266c2.549,6.832,5.325,13.618,7.275,20.626
				c2.908,10.45,5.237,21.065,7.664,31.643c0.457,1.99,0.263,4.139,0.293,6.215c0.015,1.028-0.399,2.095-1.56,1.98
				c-0.829-0.082-1.753-0.694-2.339-1.339c-0.611-0.673-0.523-1.615,0.256-2.33c0.297-0.272,0.539-0.603,0.934-1.053
				c-0.73-0.536-1.307-0.96-1.515-1.113c-0.289-1.228-0.334-2.146-0.713-2.895c-1.255-2.479-2.684-4.868-3.949-7.342
				c-6.849-13.392-15.345-25.639-25.651-36.59c-16.012-17.015-34.334-30.535-57.096-37.305c-0.245-0.887,0.236-1.339,1.061-1.281
				c0.764,0.054,1.529,0.307,2.263,0.562c8.226,2.866,16.208,6.283,23.597,10.937c22.117,13.931,39.653,32.288,52.814,54.858
				c0.547,0.937,1.262,1.776,1.898,2.661L183.966,157.788z M49.465,316.33c-0.012-0.767-0.024-1.534-0.036-2.301
				c-0.113,0.012-0.226,0.024-0.338,0.036c0.124,0.755,0.248,1.51,0.372,2.266c0.105,0.235,0.279,0.464,0.304,0.707
				c0.646,6.36,2.386,12.474,4.789,18.332c3.225,7.864,6.881,15.551,10.352,23.313c0.323,0.722,0.646,1.445,0.969,2.167
				c-7.538-12.624-13.612-25.831-16.492-40.332c0.234,5.15,1.263,10.161,2.504,15.125c4.806,19.23,14.345,35.688,29.128,48.951
				c6.678,5.992,14.171,10.922,21.808,15.612c8.081,4.963,15.911,10.277,23.144,16.435c0.143,0.122,0.384,0.128,0.91,0.289
				c-0.745-1.069-1.273-1.847-1.822-2.611c-5.75-7.996-13.081-14.345-20.892-20.224c-7.08-5.329-14.059-10.793-21.075-16.208
				c-0.659-0.508-1.26-1.091-1.888-1.639c0.337-0.07,0.555,0.017,0.737,0.151c6.994,5.15,14.021,10.254,20.964,15.471
				c6.883,5.172,13.608,10.539,19.17,17.194c0.119,0.142,0.354,0.187,0.535,0.277c-3.859-6.753-8.333-13.032-13.519-18.708
				c-5.159-5.646-10.781-10.869-16.625-16.702c13.823,9.954,23.296,22.98,32.386,36.379c-0.003-0.487-0.122-0.891-0.327-1.245
				c-1.873-3.227-3.644-6.521-5.664-9.654c-9.303-14.429-19.928-27.82-31.909-40.118c-9.663-9.919-18.341-20.647-26.429-31.869
				c-3.243-4.499-6.475-9.004-9.951-13.839c1.228,5.236,2.71,10.002,4.737,14.569c2.076,4.678,4.291,9.299,6.579,13.878
				c2.194,4.392,4.561,8.697,6.852,13.041c-0.316-0.029-0.441-0.152-0.535-0.295c-7.601-11.503-13.925-23.617-17.672-36.965
				C50.362,317.226,50.561,316.287,49.465,316.33z M62.631,314.9c0.826,0.739,1.615,1.525,2.485,2.208
				c4.785,3.754,9.731,7.318,14.339,11.276c3.177,2.729,5.895,5.994,8.818,9.019c-0.13,0.137-0.26,0.273-0.39,0.409
				c-11.138-10.353-23.437-19.233-35.564-28.398c0.311,0.95,0.742,1.789,1.369,2.438c4.1,4.243,8.165,8.525,12.39,12.642
				c5.474,5.334,11.221,10.396,15.915,16.48c0.399,0.517,0.774,1.053,1.16,1.58c-0.383,0.066-0.58-0.027-0.726-0.173
				c-7.424-7.437-14.822-14.9-22.274-22.31c-3.459-3.44-6.741-7.012-9.354-11.156c-0.308-0.488-0.724-0.908-1.09-1.359
				c-0.159,0.683-0.05,1.229,0.143,1.744c1.695,4.539,4.587,8.35,7.423,12.196c8.974,12.171,18.026,24.276,28.678,35.077
				c14.514,14.716,27.341,30.766,38.124,48.424c0.172,0.281,0.46,0.491,0.694,0.734c-0.933-3.167-2.134-6.129-3.468-9.03
				c-1.305-2.837-2.694-5.639-4.142-8.406c-1.43-2.732-2.981-5.402-4.479-8.099c0.209-0.114,0.419-0.228,0.628-0.341
				c2.143,3.76,4.567,7.39,6.369,11.306c3.518,7.645,6.685,15.451,10.006,23.185c0.289,0.672,0.648,1.315,0.974,1.971
				c0.278-0.876,0.291-1.661,0.09-2.386c-1.018-3.674-1.95-7.381-3.174-10.987c-3.386-9.978-7.637-19.564-13.43-28.413
				c-0.511-0.781-0.918-1.63-1.374-2.448c0.165-0.079,0.329-0.159,0.494-0.238c7.682,10.303,12.029,22.219,16.443,34.149
				c-1.627-7.822-3.415-15.595-5.375-23.324c-1.965-7.751-5.415-14.966-8.464-22.335c1.257,1.7,2.473,3.414,3.335,5.291
				c1.411,3.072,2.744,6.198,3.843,9.393c3.084,8.965,5.085,18.215,6.922,27.499c0.522,2.638,0.991,5.287,1.484,7.931
				c0.269-13.175-0.604-26.221-3.406-39.099c-4.239-19.48-15.614-33.902-32.123-44.342c-10.834-6.851-22.718-11.607-35.087-15.056
				c-0.717-0.2-1.445-0.361-2.168-0.54c-0.036,0.109-0.072,0.217-0.107,0.326c1.197,0.664,2.395,1.328,3.592,1.992
				C62.314,314.12,62.473,314.51,62.631,314.9z M223.594,191.606c-0.561-0.382-1.123-0.764-1.684-1.146
				c-0.078,0.151-0.155,0.302-0.233,0.454c0.592,0.297,1.184,0.593,1.776,0.89c1.031,0.777,2.041,1.585,3.097,2.326
				c7.83,5.49,15.658,10.984,22.564,17.652c6.526,6.301,11.732,13.528,14.781,22.124c1.885,5.314,3.457,10.741,5.094,16.139
				c0.527,1.737,0.865,3.537,1.188,5.327c0.124,0.687-0.012,1.446-1.063,1.294c-0.122-0.145-0.293-0.258-0.334-0.407
				c-1.297-4.771-2.588-9.543-3.866-14.319c-3.453-12.897-10.261-23.669-20.474-32.265c-8.257-6.949-16.99-13.248-26.15-18.953
				c-0.1-0.062-0.271-0.012-0.994-0.023c8.754,6.161,15.125,13.946,20.982,22.215c-8.341-9.008-17.122-17.525-27.063-24.838
				c8.457,10.249,15.009,21.599,20.258,33.727c-7.056-11.881-13.641-24.071-23.236-34.235c5.713,7.448,9.712,15.853,13.746,24.242
				c-0.613-0.592-1.029-1.3-1.48-1.986c-5.049-7.693-10.101-15.384-15.16-23.07c-0.349-0.531-0.597-1.399-1.704-0.55
				c4.044,5.193,7.787,10.575,10.739,16.462c2.643,5.27,6.452,16.249,6.417,18.785c-4.527-12.574-9.758-24.518-18.406-34.781
				c-0.524,0.451-0.879,0.755-1.244,1.069c4.327,6.349,7.347,13.157,10.35,19.976c-3.795-6.496-7.137-13.243-11.182-19.626
				c-1.702,1.385-1.638,1.351-0.783,2.973c1.576,2.989,3.348,5.917,4.534,9.06c1.835,4.864,3.27,9.881,4.825,14.849
				c0.652,2.083,1.179,4.206,1.763,6.31c-3.55-9.382-6.38-19.012-11.399-27.777c0.466,2.661,1.211,5.235,1.791,7.846
				c0.602,2.71,1.055,5.453,1.552,8.186c0.462,2.539,0.897,5.084,1.344,7.626c-0.089,0.009-0.179,0.018-0.268,0.027
				c-2.047-8.107-4.094-16.215-6.14-24.323c-1.469,3.421-1.807,6.88-1.578,10.343c0.342,5.195,0.967,10.37,1.4,15.559
				c0.347,4.155,0.378,8.346,0.922,12.472c0.864,6.544,1.989,13.056,3.104,19.564c0.533,3.112,1.741,5.994,3.615,8.571
				c4.31,5.926,9.799,10.241,16.777,12.674c10.861,3.787,21.821,6.908,33.46,7.186c10.668,0.255,21.146-0.463,31.391-3.748
				c8.219-2.634,15.915-6.439,23.784-9.887c6.625-2.903,11.89-7.456,16.806-12.515c3.564-3.668,3.818-8.569,0.622-12.528
				c-2.006-2.486-4.213-4.917-6.721-6.87c-7.538-5.869-15.175-11.623-22.944-17.183c-15.621-11.18-32.424-20.189-50.481-26.798
				c-9.726-3.56-19.753-6.048-29.859-8.234c-1.154-0.25-2.363-0.242-3.546-0.353c0.131,0.463,0.266,0.571,0.42,0.62
				c0.578,0.185,1.158,0.366,1.744,0.521c13.251,3.488,25.397,9.333,36.606,17.172c0.325,0.227,0.543,0.608,0.81,0.918l0.041-0.055
				c-0.848-0.388-1.739-0.703-2.537-1.176c-7.257-4.299-14.62-8.419-22.534-11.37c-5.685-2.12-11.526-3.819-17.304-5.686
				c-0.812-0.262-1.702-0.602-2.362,0.674c8.419,1.867,16.09,5.441,23.534,9.589c7.447,4.15,13.621,9.861,19.639,15.781
				c-0.551-0.118-0.853-0.553-1.253-0.859c-4.554-3.48-9.041-7.057-13.708-10.378c-6.184-4.401-12.947-7.772-20.012-10.53
				c-0.648-0.253-1.343-0.385-2.016-0.572c2.363,1.628,4.866,2.824,7.314,4.125c2.53,1.345,5.056,2.709,7.489,4.218
				c2.283,1.416,4.441,3.033,6.655,4.561c-0.094,0.141-0.189,0.282-0.283,0.422c-0.853-0.536-1.689-1.103-2.563-1.603
				C230.518,195.519,227.054,193.566,223.594,191.606z M262.4,174.815c-2.774,0.056-5.549,0.195-8.321,0.153
				c-9.225-0.139-18.389,0.623-27.529,1.766c-0.887,0.111-1.75,0.411-2.624,0.623c14.387-0.774,28.482,0.659,42.472,3.582
				c-0.727,0.111-1.45,0.099-2.17,0.045c-8.479-0.642-16.956-1.32-25.439-1.916c-2.175-0.153-4.369-0.049-6.554-0.063
				c-0.019,0.201-0.037,0.401-0.056,0.602c10.899,1.174,21.363,4.196,31.812,7.3c-1.777-0.196-3.514-0.582-5.245-0.994
				c-11.909-2.839-23.842-5.542-36.098-6.415c-1.166-0.083-2.343-0.027-3.514-0.035c0.828,0.723,1.703,1.001,2.596,1.198
				c14.123,3.106,27.868,7.362,41.015,13.448c0.627,0.29,1.286,0.539,1.955,0.708c3.277,0.825,6.612,1.457,9.834,2.456
				c5.702,1.768,11.542,2.368,17.458,2.538c3.818,0.109,7.639,0.13,11.452,0.317c4.646,0.229,9.195-0.405,13.704-1.374
				c10.458-2.246,19.633-7.26,28.407-13.181c4.44-2.997,7.132-7.094,8.174-12.234c2.179-10.747,2.835-21.611,0.334-32.339
				c-2.008-8.61-4.871-17.019-7.282-25.538c-1.708-6.037-5.643-10.031-11.194-12.62c-1.417-0.661-2.814-1.381-4.278-1.917
				c-3.404-1.246-6.921-1.718-10.499-0.934c-3.561,0.78-7.09,1.702-10.639,2.538c-15.228,3.588-29.198,9.966-42.014,18.912
				c-11.552,8.063-22.704,16.634-33.145,26.11c-7.619,6.914-14.586,14.407-20.503,22.846c-0.508,0.725-1.023,1.444-1.535,2.166
				c0.223,0.163,0.446,0.325,0.669,0.488c0.483-0.793,0.901-1.636,1.459-2.372c6.114-8.06,13.088-15.319,20.657-22.014
				c0.491-0.434,1.125-0.708,1.693-1.056l-0.054-0.046c-0.396,0.533-0.737,1.119-1.196,1.59c-4.243,4.356-8.516,8.683-12.757,13.041
				c-0.982,1.009-1.878,2.101-2.814,3.155c0.134,0.13,0.268,0.26,0.402,0.39c1.245-1.148,2.478-2.31,3.739-3.441
				c1.229-1.102,2.469-2.192,3.734-3.253c1.331-1.117,2.684-2.208,4.05-3.281c1.366-1.074,2.745-2.132,4.145-3.16
				c1.329-0.977,2.672-1.94,4.048-2.848c1.346-0.889,2.743-1.702,4.118-2.548c0.09,0.156,0.181,0.311,0.271,0.467
				c-2.232,1.643-4.471,3.277-6.693,4.933c-2.229,1.66-4.478,3.297-6.652,5.028c-2.174,1.731-4.305,3.521-6.38,5.369
				c-1.993,1.775-3.891,3.657-5.83,5.492c8.381-5.858,16.432-12.07,25.73-16.362c-7.083,5.02-14.469,9.606-21.184,15.156
				c3.668-1.583,7.181-3.419,10.738-5.166c3.467-1.703,6.979-3.316,10.471-4.969c-8.045,5.261-16.708,9.373-24.664,14.737
				c1.526-0.378,2.922-1.01,4.302-1.676c20.546-9.915,42.073-16.852,64.579-20.46c13.119-2.103,26.345-3.62,39.655-4.064
				c2.339-0.078,4.686,0.034,7.028,0.091c0.851,0.021,1.497,0.315,1.305,1.402c-36.553,0.685-72.005,6.321-105.41,21.795
				c0.52,0.03,0.995-0.118,1.469-0.27c2.975-0.948,5.935-1.944,8.927-2.835c5.473-1.631,10.964-3.201,16.448-4.797l-0.005-0.002
				c0.056,0.869-0.633,0.854-1.193,1.056c-8.466,3.044-16.929,6.096-25.384,9.169c-1.252,0.455-2.461,1.028-3.69,1.547
				c0.639,0.303,1.151,0.267,1.638,0.138c8.863-2.353,17.718-4.739,26.886-5.643c0.333-0.033,0.652-0.217,0.978-0.331l-0.044-0.024
				c-0.377,0.284-0.719,0.739-1.137,0.827c-4.667,0.976-9.38,1.752-14.012,2.864c-6.571,1.577-13.086,3.387-19.62,5.113
				c-0.478,0.126-0.923,0.376-1.383,0.568c1.409,0.133,2.7,0.014,3.984-0.163c11.28-1.554,22.579-2.757,33.99-1.802
				c0.796,0.067,1.577,0.314,2.365,0.477L262.4,174.815z M212.089,174.596c-0.148-0.112-0.296-0.225-0.445-0.337
				c-0.412,0.687-0.823,1.375-1.235,2.062c0.097,0.063,0.193,0.126,0.29,0.188C211.162,175.872,211.625,175.234,212.089,174.596z"/>
			<path d="M184.056,157.875c-0.368-0.96-0.631-1.979-1.122-2.871c-6.39-11.613-12.811-23.21-19.229-34.808
				c-1.615-2.919-3.248-5.829-4.529-8.944c1.729,2.669,3.634,5.241,5.157,8.023c6.53,11.93,12.944,23.924,19.414,35.887
				c0.402,0.743,0.93,1.417,1.4,2.123c0.183,0.428,0.367,0.855,0.55,1.283c-1.078,0.854-1.024-0.808-1.731-0.779L184.056,157.875z"
			/>
			<path d="M62.156,313.73c12.876,5.565,24.834,12.463,34.21,23.111c-0.125,0.18-0.25,0.36-0.375,0.54
				c-0.589-0.509-1.217-0.979-1.761-1.532c-8.631-8.768-18.832-15.236-29.898-20.436c-0.53-0.249-1.132-0.346-1.701-0.514
				C62.473,314.51,62.314,314.12,62.156,313.73z"/>
			<path d="M199.99,172.183c1.154-4.529,2.34-9.051,3.457-13.589c3.325-13.514,7.602-26.717,12.821-39.618
				c2.084-5.152,4.123-10.323,6.123-15.509c4.197-10.883,9.294-21.335,14.97-31.513c0.379-0.68,0.767-1.386,1.299-1.936
				c0.251-0.26,0.854-0.179,1.607-0.303c-0.261,0.704-0.351,1.113-0.551,1.46c-6.389,11.084-11.863,22.6-16.451,34.546
				c-4.762,12.4-10.119,24.584-13.813,37.371c-2.264,7.837-4.332,15.734-6.333,23.643c-0.488,1.929-0.56,3.976-1.352,5.839
				c-0.508,1.197-0.007,2.119,0.486,3.165c0.556,1.178-0.01,2.634-1.115,3.456c-0.93,0.691-1.921,0.735-2.924,0.157
				c-1.087-0.625-1.737-1.935-1.501-3.09c0.337-1.647,1.601-2.136,3.134-2.294c0.074-0.655,0.141-1.248,0.207-1.841L199.99,172.183z
				 M200.796,176.114c-0.926-0.01-1.894-0.847-2.367,0.498c-0.115,0.326,0.435,1.235,0.804,1.317
				C200.488,178.21,200.71,177.305,200.796,176.114z"/>
			<path d="M152.039,129.279c15.045,11.896,26.274,26.936,35.395,43.654c-0.147,0.107-0.293,0.215-0.439,0.322
				c-3.414-5.19-6.646-10.512-10.294-15.532c-3.67-5.049-7.602-9.929-11.7-14.639C160.859,138.327,156.374,133.869,152.039,129.279z
				"/>
			<path d="M223.686,120.173c-6.375,16.553-12.749,33.106-19.124,49.659c-0.138-0.02-0.275-0.039-0.413-0.059
				c0.197-0.892,0.298-1.819,0.604-2.672c2.701-7.506,5.287-15.059,8.207-22.48c3.079-7.823,6.487-15.516,9.758-23.263
				c0.2-0.474,0.467-0.919,0.702-1.377C223.51,120.045,223.598,120.109,223.686,120.173z"/>
			<path d="M198.91,166.649c-0.998-3.672,3.316-42.524,5.489-49.884C202.672,133.405,201.166,150.068,198.91,166.649z"/>
			<path d="M195.903,121.198c0.007,2.24-0.022,4.481,0.028,6.72c0.186,8.332,0.459,16.662,0.569,24.994
				c0.045,3.379-0.241,6.762-0.392,10.143c-0.017,0.371-0.141,0.737-0.215,1.105c-0.179,0.003-0.358,0.006-0.537,0.009
				c-0.111-0.974-0.305-1.947-0.318-2.922c-0.085-6.164-0.212-12.33-0.168-18.493c0.049-6.848,0.257-13.696,0.436-20.542
				c0.009-0.334,0.41-0.658,0.628-0.987L195.903,121.198z"/>
			<path d="M140.587,144.738c11.423,3.858,38.102,20.734,39.129,26.969c-0.262-0.396-0.477-0.834-0.793-1.18
				c-3.415-3.742-7.348-6.891-11.624-9.553c-8.166-5.082-16.432-10.002-24.656-14.989
				C141.958,145.569,141.273,145.153,140.587,144.738z"/>
			<path d="M189.55,183.452c-0.412-0.08-0.852-0.094-1.234-0.249c-5.982-2.431-12.229-2.962-18.617-2.845
				c-9.906,0.181-19.361,2.71-28.828,5.234c-0.739,0.197-1.49,0.347-2.363,0.086c2.648-0.832,5.262-1.797,7.95-2.469
				c7.245-1.813,14.563-3.27,22.054-3.565c6.271-0.248,12.479,0.146,18.431,2.374c0.915,0.342,1.72,0.977,2.576,1.477
				C189.519,183.495,189.55,183.452,189.55,183.452z"/>
			<path d="M226.146,136.249c-0.115,0.4-0.155,0.842-0.356,1.192c-5.793,10.064-11.6,20.121-17.415,30.173
				c-0.337,0.582-0.762,1.112-1.467,1.531c0.134-0.444,0.188-0.936,0.415-1.326c5.823-10.041,11.658-20.076,17.52-30.095
				c0.324-0.553,0.901-0.958,1.361-1.432L226.146,136.249z"/>
			<path d="M192.988,163.959c-1.742-12.598-3.483-25.196-5.225-37.794c2.149,12.54,5.272,24.941,5.813,37.71
				C193.38,163.904,193.184,163.931,192.988,163.959z"/>
			<path d="M170.503,207.461c6.546-7.189,12.977-14.579,22.025-18.902C183.976,193.443,178.018,201.318,170.503,207.461z"/>
			<path d="M198.723,186.667c-0.914-0.173-1.929-0.151-2.717-0.564c-1.194-0.625-1.498-2.513-0.811-3.684
				c0.616-1.052,1.972-1.43,3.184-0.888c1.215,0.543,1.923,1.949,1.469,3.227c-0.252,0.71-0.783,1.32-1.192,1.978
				C198.653,186.739,198.723,186.667,198.723,186.667z M197.497,185.38c0.41-0.64,0.869-1.112,0.78-1.264
				c-0.25-0.429-0.714-0.741-1.134-1.043c-0.03-0.021-0.606,0.49-0.56,0.633C196.743,184.197,197.068,184.633,197.497,185.38z"/>
			<path d="M200.199,162.853c0.883-7.62,2.451-15.123,4.447-22.554c-1.28,7.532-2.56,15.065-3.839,22.597
				C200.604,162.881,200.402,162.867,200.199,162.853z"/>
			<path d="M218.039,157.738c4.437-6.017,8.754-12.127,14.092-17.448c-4.536,5.951-9.071,11.901-13.607,17.851
				C218.363,158.007,218.201,157.873,218.039,157.738z"/>
			<path d="M163.998,151.073c-1.42-1.207-2.84-2.413-4.26-3.62c1.171-0.109,1.727,0.748,2.439,1.337
				c0.727,0.601,1.417,1.247,2.123,1.872C164.199,150.799,164.099,150.936,163.998,151.073z"/>
			<path d="M217.986,158.936c-1.278,1.768-2.387,3.302-3.633,5.023C214.732,161.958,216.175,159.943,217.986,158.936z"/>
			<path d="M200.414,181.889c1.02,0.025,1.881,0.047,3.047,0.075c-0.316,0.535-0.615,1.105-0.65,1.089
				C202.067,182.717,200.762,183.586,200.414,181.889z"/>
			<path d="M142.69,165.387c-1.314,0.242-2.627,0.484-3.941,0.726c-0.02-0.149-0.041-0.298-0.061-0.446
				c1.312-0.071,2.624-0.141,3.949-0.224C142.651,165.43,142.69,165.387,142.69,165.387z"/>
			<path d="M145.693,178.676c-1.321,0.245-2.642,0.49-3.963,0.735c-0.012-0.087-0.025-0.175-0.037-0.262
				c1.344-0.152,2.688-0.305,4.044-0.451C145.749,178.705,145.693,178.676,145.693,178.676z"/>
			<path d="M205.877,173.297c-0.432,0.468-0.65,0.837-0.971,0.99c-0.143,0.068-0.734-0.378-0.709-0.453
				c0.116-0.352,0.32-0.741,0.612-0.942C204.949,172.795,205.355,173.086,205.877,173.297z"/>
			<path d="M166.454,152.689c0.625,0.558,1.249,1.115,1.873,1.673c-0.095,0.107-0.19,0.215-0.285,0.322
				c-0.63-0.551-1.26-1.103-1.89-1.654C166.253,152.916,166.354,152.803,166.454,152.689z"/>
			<path d="M226.204,136.292c0.404-0.903,0.808-1.805,1.212-2.708c0.08,1.163-0.235,2.12-1.27,2.664
				C226.146,136.249,226.204,136.292,226.204,136.292z"/>
			<path d="M211.796,166.783c0.484-0.726,0.983-1.473,1.482-2.221c0.144,0.086,0.289,0.173,0.433,0.259
				c-0.487,0.728-0.973,1.458-1.466,2.182c-0.028,0.042-0.137,0.071-0.18,0.05C211.992,167.017,211.941,166.936,211.796,166.783z"/>
			<path d="M198.314,168.557c-0.313,0.179-0.615,0.46-0.943,0.495c-0.162,0.017-0.371-0.422-0.559-0.654
				c0.281-0.227,0.532-0.551,0.853-0.652c0.302-0.095,0.678,0.045,1.022,0.081C198.563,168.07,198.438,168.314,198.314,168.557z"/>
			<path d="M207.852,172.871c-0.284-0.525-0.577-0.845-0.592-1.177c-0.008-0.187,0.441-0.395,0.684-0.593
				c0.233,0.302,0.561,0.577,0.657,0.917C208.645,172.173,208.23,172.457,207.852,172.871z"/>
			<path d="M150.867,128.4c-0.562-0.523-1.124-1.047-1.687-1.57c0.052-0.086,0.103-0.172,0.155-0.258
				c0.367,0.22,0.765,0.403,1.092,0.671c0.302,0.248,0.529,0.588,0.789,0.888C151.1,128.221,150.983,128.311,150.867,128.4z"/>
			<path d="M195.687,174.59c-0.407-0.374-0.79-0.564-0.809-0.785c-0.021-0.253,0.281-0.533,0.443-0.802
				c0.261,0.169,0.659,0.288,0.743,0.521C196.142,173.74,195.885,174.077,195.687,174.59z"/>
			<path d="M200.055,172.128c-0.229,0.093-0.454,0.254-0.687,0.264c-0.351,0.015-0.713-0.052-1.051-0.151
				c-0.043-0.013,0.033-0.43,0.054-0.66c0.359,0.034,0.735,0.015,1.07,0.122c0.209,0.067,0.356,0.324,0.539,0.488
				C199.99,172.183,200.055,172.128,200.055,172.128z"/>
			<path d="M195.934,121.225c-0.196-0.923-0.391-1.846-0.587-2.769c0.073-0.014,0.146-0.029,0.22-0.043
				c0.104,0.919,0.208,1.837,0.324,2.77C195.903,121.198,195.934,121.225,195.934,121.225z"/>
			<path d="M194.924,181.621c-0.37-0.314-0.758-0.486-0.79-0.709c-0.036-0.259,0.241-0.561,0.382-0.844
				c0.311,0.188,0.7,0.319,0.895,0.59C195.491,180.77,195.156,181.181,194.924,181.621z"/>
			<path d="M188.534,175.73c0.491,0.886,0.707,1.125,0.734,1.385c0.014,0.136-0.3,0.307-0.466,0.462
				c-0.182-0.218-0.441-0.41-0.522-0.661C188.216,176.716,188.368,176.445,188.534,175.73z"/>
			<path d="M149.542,138.852c0.343,0.183,0.687,0.366,1.03,0.548c-0.106,0.142-0.212,0.284-0.318,0.426
				c-0.302-0.191-0.604-0.382-0.906-0.573C149.413,139.12,149.477,138.986,149.542,138.852z"/>
			<path d="M228.427,132.243c0.271-0.369,0.542-0.737,0.814-1.106c0.097,0.065,0.195,0.129,0.292,0.194
				c-0.247,0.389-0.494,0.777-0.74,1.166C228.671,132.412,228.549,132.327,228.427,132.243z"/>
			<path d="M172.754,159.359c-0.4-0.366-0.801-0.733-1.201-1.099c0.089-0.092,0.178-0.184,0.267-0.276
				c0.383,0.382,0.765,0.765,1.148,1.147C172.897,159.206,172.826,159.283,172.754,159.359z"/>
			<path d="M170.221,156.836c-0.229-0.209-0.651-0.594-1.073-0.979c0.16-0.197,0.32-0.393,0.48-0.589
				C169.857,155.873,170.085,156.477,170.221,156.836z"/>
			<path d="M258.206,167.012c3.588-0.407,7.177-0.814,10.765-1.221c0-0.003,0-0.007,0-0.01c-3.594,0.408-7.188,0.816-10.795,1.216
				C258.162,166.988,258.206,167.012,258.206,167.012z"/>
			<path d="M247.384,145.503c1.516-1.023,3.031-2.047,4.546-3.07c0.082,0.118,0.165,0.235,0.247,0.353
				c-1.503,1.042-3.005,2.084-4.508,3.126C247.575,145.775,247.479,145.639,247.384,145.503z"/>
			<path d="M262.348,174.871c0.842-0.148,1.684-0.296,2.527-0.444c0.011,0.149,0.022,0.298,0.034,0.446
				c-0.832-0.024-1.665-0.049-2.503-0.066C262.4,174.815,262.348,174.871,262.348,174.871z"/>
			<path d="M237.453,147.609c0.456-0.601,0.912-1.202,1.368-1.803c0.149,0.155,0.299,0.309,0.448,0.464
				c-0.623,0.431-1.246,0.862-1.87,1.293C237.399,147.564,237.453,147.609,237.453,147.609z"/>
			<path d="M249.374,155.507c-0.506,0.28-1.013,0.559-1.519,0.839c-0.051-0.096-0.102-0.191-0.152-0.287
				c0.51-0.273,1.02-0.546,1.529-0.82C249.279,155.329,249.326,155.418,249.374,155.507z"/>
			<path d="M258.978,161.077c0.741-0.084,1.483-0.168,2.224-0.252c0.003,0.091,0.005,0.182,0.008,0.273
				c-0.745-0.007-1.489-0.015-2.236-0.022C258.973,161.075,258.978,161.077,258.978,161.077z"/>
			<path d="M240.724,202.129c-0.785-0.593-1.57-1.185-2.355-1.778c0.09-0.125,0.179-0.25,0.268-0.375
				c0.811,0.593,1.621,1.185,2.432,1.778C240.954,201.879,240.839,202.004,240.724,202.129z"/>
			<path d="M253.87,200.351c0.634,0.26,1.269,0.52,1.903,0.78c-0.105,0.175-0.21,0.349-0.315,0.524
				c-0.516-0.453-1.031-0.907-1.547-1.36C253.911,200.297,253.87,200.351,253.87,200.351z"/>
			<path d="M211.148,223.127c0.064,0.562,0.128,1.124,0.191,1.686c-0.041,0.005-0.083,0.01-0.124,0.015
				c-0.064-0.562-0.128-1.124-0.191-1.686C211.065,223.137,211.107,223.132,211.148,223.127z"/>
			<path d="M68.154,365.682c-0.269-0.411-0.539-0.823-0.808-1.234c0.093-0.057,0.186-0.114,0.279-0.171
				c0.254,0.422,0.507,0.844,0.761,1.267C68.308,365.589,68.231,365.636,68.154,365.682z"/>
		</g>
		<g style="stroke:pink;clip-path:url(#SVGID_00000000931957945591507700000012580707659149037217_);">
			<path d="M429.555,594.205c-1.853-4.851-3.718-9.697-5.556-14.553c-3.387-8.947-6.823-17.875-10.118-26.855
				c-3.907-10.647-7.771-21.312-11.501-32.022c-4.156-11.934-8.164-23.921-12.189-35.901c-1.436-4.273-2.729-8.593-4.097-12.889
				c-0.101-0.316-0.275-0.61-0.44-0.97c-1.807,0.18-3.559,0.423-5.319,0.513c-2.044,0.104-4.097,0.15-6.142,0.088
				c-7.823-0.238-14.11-3.704-18.882-9.711c-4.896-6.163-8.522-13.071-10.051-20.871c-0.667-3.404-1-6.899-1.176-10.369
				c-0.561-11.069,0.887-21.958,3.143-32.772c1.2-5.752,2.197-11.547,3.277-17.324c0.099-0.53,0.132-1.073-0.147-1.766
				c-0.276,0.619-0.549,1.239-0.827,1.857c-7.996,17.776-17.684,34.537-29.871,49.796c-2.262,2.833-4.664,5.539-7.522,7.802
				c-8.17,6.469-23.337,9.241-34.299-0.991c-5.213-4.865-9.946-10.127-14.032-15.978c-2.73-3.908-4.356-8.146-4.511-12.963
				c-0.232-7.201,1.429-13.784,5.689-19.703c4.98-6.919,11.352-12.175,18.874-16.034c10.572-5.423,21.923-8.329,33.623-10.004
				c4.597-0.658,9.203-1.26,13.804-1.892c0.524-0.072,1.043-0.171,1.56-0.528c-0.562-0.05-1.124-0.126-1.687-0.146
				c-7.034-0.244-14.07-0.454-21.103-0.726c-7.256-0.28-14.468-0.906-21.444-3.127c-8.314-2.647-15.655-7.048-21.469-13.473
				c-7.902-8.732-10.699-18.934-6.713-30.401c1.82-5.234,4.882-9.763,8.784-13.691c0.855-0.861,1.88-1.598,2.931-2.213
				c3.414-1.998,6.726-4.193,10.586-5.337c6.696-1.986,13.452-2.327,20.253-0.748c4.543,1.054,8.514,3.35,12.084,6.297
				c6.114,5.047,11.249,10.973,15.25,17.819c4.001,6.847,7.854,13.781,11.766,20.68c2.866,5.055,5.721,10.116,8.583,15.172
				c0.155,0.273,0.336,0.531,0.628,0.728c-1.759-4.436-3.617-8.835-5.258-13.314c-3.792-10.348-6.629-20.962-8.568-31.813
				c-0.457-2.556-1.051-5.091-1.405-7.66c-2.063-14.95,1.577-28.21,11.931-39.387c4.191-4.524,9.203-7.954,14.934-10.225
				c4.393-1.741,8.974-2.359,13.677-1.428c3.688,0.73,7.405,1.347,11.048,2.26c6.149,1.542,11.702,4.326,15.956,9.132
				c3.808,4.303,6.007,9.393,6.482,15.194c0.701,8.566-0.603,16.672-4.446,24.478c-4.081,8.291-9.008,15.889-15.401,22.587
				c-4.429,4.64-8.57,9.556-12.84,14.348c-2.635,2.957-5.274,5.911-7.907,8.871c-0.527,0.592-1.033,1.204-1.372,1.994
				c2.12-1.345,4.223-2.719,6.364-4.031c11.389-6.977,23.118-13.261,35.827-17.544c2.265-0.763,4.488-1.661,6.777-2.338
				c9.371-2.768,18.89-2.624,28.439-1.215c6.836,1.009,11.76,5.09,16.057,10.194c7.554,8.974,9.697,19.504,9.092,30.862
				c-0.411,7.726-2.697,14.837-7.639,20.819c-5.873,7.11-13.61,11.243-22.62,13.055c-7.665,1.542-15.252,0.736-22.782-0.862
				c-4.142-0.879-8.22-2.062-12.328-3.101c-0.192-0.049-0.4-0.037-0.726-0.063c2.039,2.561,4.071,4.993,5.971,7.523
				c6.032,8.033,10.315,16.9,12.401,26.757c1.737,8.206,0.329,16.096-3.063,23.599c-1.97,4.358-5.403,7.668-9.203,10.556
				c-3.506,2.665-7.44,4.583-11.325,6.593c-0.601,0.311-1.191,0.643-1.942,1.05c0.608,1.895,1.176,3.779,1.814,5.638
				c4.302,12.537,8.588,25.079,12.938,37.599c5.426,15.618,10.616,31.306,15.144,47.216c2.26,7.942,5.142,15.707,7.712,23.562
				c0.868,2.653,1.643,5.336,2.461,8.005c-0.361,0.195-0.721,0.391-1.082,0.586c-0.861-2.735-1.697-5.478-2.587-8.204
				c-2.776-8.506-5.868-16.921-8.298-25.524c-4.701-16.649-10.358-32.976-15.953-49.328c-3.738-10.925-7.509-21.838-11.266-32.757
				c-0.725-2.106-1.448-4.213-2.175-6.325c-3.134,0.842-6.014,1.616-9.034,2.427c0.232,0.806,0.434,1.591,0.683,2.361
				c2.437,7.54,4.779,15.113,7.346,22.609c4.581,13.379,9.254,26.728,13.977,40.058c2.921,8.243,5.962,16.444,9.027,24.635
				c3.185,8.512,6.47,16.986,9.694,25.483c0.968,2.552,1.877,5.125,2.813,7.689C430.276,593.815,429.915,594.01,429.555,594.205z
				 M321.578,352.642c0.459,0.002,0.931-0.067,1.375,0.017c5.103,0.969,10.201,1.965,15.303,2.942
				c0.48,0.092,0.975,0.105,1.463,0.154c-5.494-2.476-11.14-4.397-16.446-7.131c6.661,1.953,12.995,4.825,19.625,6.864
				c-3.899-2.006-7.892-3.775-11.834-5.655c-3.967-1.892-7.882-3.894-11.82-5.848c9.93,3.416,19.338,7.985,28.873,12.326
				c-0.492-0.574-1.07-1.003-1.691-1.356c-10.93-6.217-21.866-12.423-32.799-18.635c-0.445-0.253-0.874-0.536-1.31-0.805
				c10.622,4.296,20.237,10.389,30.275,15.717c-0.371-0.499-0.814-0.89-1.294-1.224c-10.665-7.422-21.554-14.511-33.05-20.572
				c-8.701-4.587-17.649-8.707-26.482-13.045c-0.49-0.241-0.933-0.579-1.478-0.923c0.835-0.986,1.458-0.469,2.022-0.213
				c3.049,1.385,6.085,2.799,9.125,4.206c17.421,8.059,33.804,17.907,49.605,28.761c0.583,0.401,1.188,0.769,1.937,1.251
				c-0.128-0.431-0.184-0.621-0.241-0.812l-0.019,0.049c0.299-0.003,0.598-0.007,1.171-0.013
				c-7.373-6.795-14.601-13.455-21.829-20.116c9.434,7.213,17.746,15.667,26.577,23.551c-6.941-10.003-15.29-18.834-23.203-28.024
				c7.934,7.414,15.023,15.576,21.649,24.17c-3.824-6.993-8.757-13.242-13.139-19.854l-0.007,0.049
				c0.239,0.08,0.579,0.085,0.703,0.251c2.456,3.268,4.875,6.563,7.335,9.828c0.324,0.43,0.371,1.285,1.271,1.07
				c0.614,1.134,1.228,2.268,1.842,3.402c-0.613-1.131-1.225-2.263-1.838-3.394c-0.396-0.635-0.814-1.258-1.183-1.908
				c-4.387-7.725-8.682-15.504-13.174-23.168c-3.725-6.355-8.55-11.841-14.166-16.601c-3.531-2.993-7.466-5.378-12.018-6.395
				c-11.424-2.552-22.097-0.375-31.13,6.894c-8.054,6.482-12.124,15.339-11.503,25.95c0.091,1.554,0.378,3.13,0.813,4.626
				c1.396,4.793,3.727,9.147,7.125,12.781c5.307,5.675,11.741,9.765,19.025,12.463c5.162,1.912,10.536,3.021,16.018,3.254
				c13.51,0.574,27.027,0.979,40.541,1.445c0.436,0.015,0.875-0.034,1.313-0.053c-0.583-0.391-1.337-0.378-1.69-0.748
				c-0.9-0.942-2.052-0.99-3.168-1.234c-5.74-1.254-11.483-2.5-17.219-3.773c-0.434-0.096-0.827-0.38-1.24-0.576L321.578,352.642z
				 M320.785,385.056l0.038,0.012c0.153-0.32,0.222-0.749,0.472-0.944c2.256-1.762,4.534-3.497,6.825-5.213
				c6.013-4.504,12.039-8.99,18.051-13.494c1.29-0.966,2.546-1.979,3.818-2.97c-3.189,1.638-6.307,3.306-9.406,5.01
				c-3.175,1.745-6.322,3.54-9.497,5.286c-3.04,1.672-6.1,3.309-9.152,4.962c-0.057-0.108-0.113-0.216-0.17-0.324
				c7.497-4.334,14.993-8.668,22.49-13.002c-6.793,2.078-13.486,4.461-20.109,7.054c6.557-3.995,13.863-6.207,20.985-8.894
				c-8.513,1.504-16.906,3.467-25.262,5.609c9.287-3.779,19.177-5.272,28.877-7.547c-1.041-0.142-2.059-0.167-3.061-0.052
				c-8.818,1.017-17.638,2.021-26.448,3.105c-10.77,1.324-21.215,3.938-31.171,8.302c-8.932,3.916-16.463,9.619-22.176,17.636
				c-3.583,5.027-5.207,10.604-5.339,16.718c-0.115,5.307,1.282,10.074,4.4,14.42c4.04,5.63,8.627,10.736,13.65,15.5
				c10.421,9.882,25.266,7.101,32.754,1.013c3.316-2.696,6.032-5.934,8.641-9.271c10.957-14.016,19.771-29.326,27.298-45.406
				c1.978-4.225,3.516-8.605,4.455-13.183c0.082-0.4,0.059-0.822,0.085-1.233c-1.813,3.621-3.331,7.272-4.923,10.891
				c-1.6,3.637-3.33,7.211-5.715,10.421c2.378-5.383,5.266-10.523,7.167-16.121c-4.009,6.448-7.678,13.105-12.495,19.008
				c3.872-6.991,8.525-13.516,12.059-20.716c-5.715,7.252-10.958,14.883-17.475,21.453c-0.117-0.093-0.233-0.187-0.35-0.28
				c5.882-7.7,11.764-15.4,17.645-23.1c-0.136-0.112-0.272-0.224-0.408-0.337c-6.611,7.971-13.152,16.006-20.967,22.857
				c5.761-6.601,11.522-13.202,17.283-19.803c-0.1-0.095-0.201-0.191-0.301-0.286c-0.247,0.21-0.498,0.415-0.741,0.63
				c-8.991,7.972-17.877,16.065-27.003,23.879c-7.518,6.437-15.323,12.538-22.99,18.803c-1.691,1.382-3.331,2.828-4.999,4.238
				c-0.469,0.397-0.94,0.603-1.451-0.404c10.094-8.76,20.854-16.818,31.008-25.596c10.215-8.829,20.334-17.767,30.032-27.179
				c-0.369,0.063-0.689,0.186-0.95,0.386c-2.224,1.701-4.413,3.448-6.658,5.12c-4.489,3.343-8.794,6.94-13.729,9.663
				C324.096,382.655,322.477,383.92,320.785,385.056z M346.486,308.878l-0.053-0.012c0.11,0.319,0.278,0.631,0.323,0.959
				c0.542,3.923,1.059,7.85,1.596,11.774c1.112,8.118,2.228,16.235,3.359,24.35c0.1,0.715,0.326,1.411,0.494,2.117
				c-0.334-9.423-0.686-18.803-0.65-28.191c0.138-0.007,0.276-0.013,0.414-0.02c0.431,6.076,0.861,12.152,1.292,18.228
				c0.052-0.004,0.105-0.008,0.157-0.013c0.377-5.888,0.754-11.775,1.131-17.662c0.137,0.006,0.274,0.012,0.411,0.018
				c0.194,6.749-0.48,13.488-0.661,20.232c0.151,0.016,0.302,0.032,0.453,0.048c0.82-3.78,1.641-7.56,2.461-11.34
				c0.102,0.017,0.203,0.035,0.305,0.052c-0.137,1.216-0.273,2.432-0.409,3.648c0.533-0.616,0.684-1.263,0.825-1.912
				c1.163-5.344,2.202-10.718,3.508-16.026c3.792-15.414,8.611-30.526,13.634-45.574c0.671-2.01,1.413-3.996,2.155-5.981
				c0.221-0.591,0.293-1.425,1.529-1.172c-3.02,9.346-6.184,18.609-8.992,27.979c-2.805,9.361-5.503,18.768-7.788,28.266
				c-2.296,9.545-4.023,19.227-5.999,28.848c0.138,0.035,0.276,0.069,0.414,0.104c2.445-8.557,4.664-17.187,8.182-25.401
				c-2.66,9.253-5.32,18.506-7.98,27.759c4.307-9.279,6.994-19.172,11.443-28.37c-2.553,9.4-6.077,18.46-9.444,27.611
				c0.543-0.507,0.988-1.075,1.349-1.693c2.892-4.957,5.765-9.926,8.654-14.885c0.273-0.469,0.614-0.9,0.923-1.348
				c0.146,0.097,0.291,0.193,0.437,0.29c-2.98,5.229-5.961,10.459-8.942,15.689c0.088,0.064,0.176,0.128,0.264,0.192
				c5.673-6.787,11.346-13.575,17.018-20.362c-5.975,9.606-13.837,17.697-20.843,26.5c0.592-0.219,1.068-0.552,1.503-0.932
				c6.707-5.862,12.498-12.591,18.319-19.297c3.714-4.279,7.38-8.616,11.328-12.674c6.602-6.785,11.724-14.487,15.881-22.984
				c3.733-7.629,5.004-15.526,4.325-23.88c-0.443-5.452-2.578-10.213-6.075-14.281c-4.153-4.83-9.698-7.471-15.795-8.949
				c-3.385-0.82-6.83-1.389-10.244-2.09c-4.708-0.965-9.335-0.478-13.648,1.462c-14.421,6.489-22.952,17.664-25.662,33.224
				c-0.969,5.562-0.743,11.128,0.244,16.717c2.287,12.94,5.293,25.681,9.814,38.038c0.343,0.936,0.785,1.836,1.181,2.753
				c0.164-0.045,0.328-0.09,0.492-0.135c-2.528-8.003-3.797-16.228-4.659-24.528c1.424,6.836,2.655,13.714,4.621,20.427
				c0.043-0.694-0.008-1.369-0.083-2.041c-0.875-7.873-1.76-15.745-2.615-23.621C346.311,310.163,346.446,309.515,346.486,308.878z
				 M363.605,357.842c-0.489,0.148-0.979,0.296-1.468,0.444c0.668,0.395,1.357,0.565,2.055,0.67
				c7.331,1.095,14.667,2.158,21.993,3.28c2.409,0.369,4.795,0.886,7.191,1.336c-0.019,0.074-0.038,0.147-0.056,0.221
				c-0.54-0.004-1.088,0.054-1.618-0.02c-8.863-1.236-17.725-2.488-26.586-3.737c-0.688-0.097-1.376-0.19-2.063-0.285
				c-0.036,0.159-0.073,0.318-0.109,0.477c10.089,3.663,20.178,7.326,30.267,10.989c-0.047,0.131-0.095,0.262-0.142,0.393
				c-9.077-2.776-17.915-6.259-26.918-9.307c9.388,5.79,19.105,10.966,28.354,16.943c-4.927-2.354-9.801-4.803-14.578-7.429
				c-4.805-2.642-9.514-5.459-14.266-8.199c0.541,0.959,1.289,1.628,2.071,2.255c8.854,7.102,18.033,13.753,27.685,19.73
				c2.085,1.291,4.25,2.516,6.51,3.453c8.337,3.453,17.074,5.313,26.039,6.12c10.262,0.923,19.66-1.42,28.047-7.529
				c4.453-3.243,7.862-7.283,10.145-12.35c2.471-5.485,3.368-11.212,3.351-17.158c-0.029-9.739-2.511-18.623-8.905-26.207
				c-3.871-4.591-8.236-8.45-14.361-9.566c-8.273-1.508-16.618-1.78-24.849,0.015c-9.045,1.972-17.587,5.562-25.917,9.503
				c-11.569,5.474-22.454,12.177-32.924,19.539c-0.516,0.363-0.938,0.858-1.404,1.292c12.908-7.171,25.488-14.852,39.524-19.653
				c-12.076,5.958-24.113,11.986-35.595,19.053c2.929-1.129,5.807-2.363,8.704-3.553c2.841-1.167,5.685-2.329,8.557-3.416
				c2.935-1.111,5.888-2.182,8.865-3.171c2.897-0.963,5.836-1.801,8.756-2.694c-3.988,1.786-8.064,3.305-12.139,4.828
				c-4.091,1.528-8.206,2.998-12.266,4.606c-3.987,1.58-7.918,3.302-11.874,4.962c1.412-0.1,2.709-0.504,4.024-0.841
				c7.665-1.966,15.332-3.926,23.006-5.854c0.59-0.148,1.246-0.033,1.871-0.04l0.011-0.054c-0.579,0.194-1.149,0.421-1.737,0.579
				c-9.028,2.418-18.058,4.824-27.085,7.245c-0.37,0.099-0.709,0.318-1.062,0.481c3.463-0.143,6.841-0.564,10.213-1.024
				c3.382-0.461,6.754-0.992,10.138-1.437c3.316-0.436,6.639-0.834,9.964-1.19c3.394-0.363,6.793-0.689,10.195-0.969
				c3.402-0.28,6.807-0.536,10.216-0.708c3.409-0.172,6.823-0.287,10.237-0.319c3.346-0.032,6.693,0.071,10.039,0.117
				c3.415,0.047,6.831,0.037,10.243,0.161c3.343,0.121,6.703-0.305,10.218,0.031c-0.472,1.253-1.302,1.1-1.992,1.108
				c-3.755,0.044-7.511,0.114-11.265,0.062c-11.336-0.156-22.663-0.352-33.991,0.49c-15.404,1.145-30.646,3.57-45.951,5.501
				c-0.401,0.051-0.791,0.199-1.457,0.373c1.571,0.195,2.824,0.352,4.078,0.507L363.605,357.842z M361.804,363.929
				c-0.277,0.034-0.554,0.069-0.953,0.118c0.273,0.324,0.471,0.596,0.706,0.832c7.658,7.678,15.158,15.496,21.584,24.271
				c1.969,2.688,3.994,5.335,5.993,8.001l0.019-0.064c-0.267-0.177-0.597-0.303-0.793-0.539c-2.829-3.409-5.56-6.902-8.472-10.238
				c-5.025-5.758-10.157-11.423-15.255-17.118c-0.426-0.476-0.932-0.879-1.401-1.316c-0.107,0.087-0.215,0.174-0.323,0.262
				c8.293,10.636,15.612,21.869,21.245,34.248c-7.125-11.66-14.071-23.325-22.526-33.984c1.178,2.076,2.432,4.102,3.654,6.148
				c1.226,2.053,2.447,4.111,3.622,6.193c1.128,2,2.195,4.035,3.288,6.054c-0.064,0.032-0.129,0.063-0.193,0.095
				c-2.967-4.824-5.933-9.648-8.9-14.472c2.474,6.482,5.281,12.779,8.015,19.107c2.466,5.707,4.913,11.423,7.26,17.18
				c3.481,8.539,6.865,17.117,10.292,25.678c0.888,2.219,1.789,4.434,2.668,6.657c0.234,0.591,0.703,1.25-0.537,1.875
				c-2.831-6.398-5.198-12.921-7.832-19.329c-2.648-6.444-5.175-12.939-7.853-19.37c-2.678-6.432-5.388-12.854-8.25-19.207
				c-2.833-6.291-5.36-12.728-8.645-19.099c-0.107,0.395-0.154,0.467-0.137,0.519c3.601,10.736,7.21,21.469,10.794,32.21
				c0.125,0.376,0.002,0.834-0.006,1.254l0,0.005c-0.371-1.089-0.665-2.212-1.124-3.262c-3.016-6.897-5.173-14.093-7.466-21.242
				c-1.035-3.228-2.104-6.446-3.157-9.669c1.096,9.855,3.749,19.418,4.759,29.266c-1.139-3.712-2.305-7.421-3.121-11.205
				c-1.137-5.273-2.01-10.603-3.002-15.907c-0.119-0.637-0.275-1.267-0.414-1.9c-0.302,4.54-0.356,9.041-0.318,13.542
				c0.039,4.577,0.117,9.155,0.273,13.73c0.15,4.406,0.557,8.805,0.238,13.224c-0.429-2.902-0.871-5.81-0.932-8.725
				c-0.185-8.879-0.216-17.762-0.33-26.643c-0.01-0.752,0.232-1.569-0.447-2.57c-0.302,1.706-0.564,3.111-0.798,4.52
				c-1.392,8.36-2.591,16.748-4.468,25.029c-2.211,9.755-3.52,19.638-3.308,29.685c0.101,4.795,0.385,9.56,1.486,14.241
				c1.397,5.94,4.199,11.253,7.505,16.313c2.381,3.645,5.351,6.717,9.154,8.941c4.412,2.58,9.211,3.283,14.217,3.153
				c12.148-0.316,23.019-4.304,32.715-11.516c3.477-2.586,6.537-5.715,8.374-9.678c2.677-5.778,3.983-11.913,3.604-18.33
				c-0.37-6.245-2.452-12.03-4.969-17.662c-3.064-6.853-7.323-12.945-12.192-18.637c-1.7-1.988-3.48-3.926-5.744-5.189
				c-6.459-3.605-12.624-7.652-18.558-12.046c-5.324-3.942-10.542-8.027-15.801-12.056c-2.006-1.537-3.99-3.104-6.004-4.63
				c-0.606-0.459-1.282-0.825-1.926-1.233c0.436,0.798,1.076,1.281,1.675,1.81c1.012,0.894,1.997,1.818,2.994,2.73L361.804,363.929z
				 M356.723,335.405c0.12,0.032,0.24,0.064,0.36,0.096c0.038-0.477,0.076-0.954,0.115-1.43c-0.081-0.005-0.163-0.01-0.244-0.015
				C356.877,334.505,356.8,334.955,356.723,335.405z"/>
			<path d="M391.922,390.873c-0.529-0.328-1.129-0.579-1.574-0.996c-4.478-4.194-8.852-8.502-13.411-12.605
				c-4.458-4.012-9.102-7.815-13.648-11.73c-0.55-0.474-0.993-1.072-1.485-1.613c0,0-0.022,0.05-0.022,0.05
				c0.291,0.135,0.623,0.219,0.867,0.413c9.055,7.189,17.79,14.743,25.939,22.956c1.146,1.155,2.213,2.389,3.317,3.586
				L391.922,390.873z"/>
			<path d="M391.905,390.934c0.574,0.565,1.148,1.13,1.723,1.695c-0.095,0.081-0.19,0.163-0.285,0.244
				c-0.475-0.662-0.95-1.324-1.423-1.993C391.922,390.873,391.905,390.934,391.905,390.934z"/>
			<path d="M368.869,399.892c0.445,0.706,0.89,1.412,1.335,2.118c-0.083,0.045-0.167,0.091-0.25,0.136
				c-0.362-0.75-0.723-1.499-1.085-2.249C368.868,399.897,368.869,399.892,368.869,399.892z"/>
			<path d="M389.134,397.15c0.404,0.487,0.808,0.973,1.212,1.46c-0.093,0.059-0.185,0.118-0.278,0.178
				c-0.306-0.565-0.612-1.13-0.917-1.698C389.153,397.086,389.134,397.15,389.134,397.15z"/>
			<path d="M366.911,357.954c0.456-0.076,0.913-0.229,1.366-0.217c8.24,0.215,16.479,0.447,24.718,0.688
				c0.741,0.022,1.479,0.13,2.236,0.468c-0.361,0.065-0.723,0.197-1.082,0.185c-8.851-0.277-17.701-0.566-26.551-0.871
				c-0.228-0.008-0.451-0.202-0.676-0.309L366.911,357.954z"/>
			<path d="M366.923,357.898c-1.106-0.019-2.211-0.038-3.317-0.056c0,0-0.012,0.054-0.012,0.054
				c1.106,0.019,2.212,0.038,3.318,0.057C366.911,357.954,366.923,357.898,366.923,357.898z"/>
			<path d="M392.581,346.942c0.815-0.325,1.63-0.651,2.445-0.976c0.044,0.153,0.089,0.305,0.133,0.458
				c-0.855,0.153-1.711,0.306-2.567,0.462C392.592,346.889,392.581,346.942,392.581,346.942z"/>
			<path d="M397.906,373.283c-0.855-0.31-1.309-0.475-1.763-0.639c0.045-0.144,0.091-0.287,0.136-0.431
				C396.711,372.497,397.143,372.781,397.906,373.283z"/>
			<path d="M393.377,363.572c0.603,0.04,1.206,0.081,1.809,0.121c-0.021,0.157-0.043,0.314-0.064,0.471
				c-0.601-0.124-1.201-0.247-1.802-0.371C393.339,363.719,393.358,363.646,393.377,363.572z"/>
			<path d="M379.16,325.767c0.644-0.873,1.289-1.746,1.933-2.619c0.1,0.076,0.2,0.151,0.3,0.227c-0.633,0.881-1.267,1.762-1.9,2.643
				C379.382,325.935,379.271,325.851,379.16,325.767z"/>
			<path d="M369.385,318.339c-0.258,0.785-0.516,1.57-0.774,2.354c-0.146-0.049-0.292-0.097-0.438-0.146
				c0.281-0.776,0.562-1.552,0.843-2.328C369.139,318.259,369.262,318.299,369.385,318.339z"/>
			<path d="M346.486,308.878c-0.091-0.73-0.181-1.46-0.272-2.19l-0.061-0.014c0.092,0.731,0.184,1.462,0.278,2.193
				C346.433,308.866,346.486,308.878,346.486,308.878z"/>
			<path d="M346.214,306.687c-0.161-0.567-0.323-1.133-0.484-1.7c0.141-0.02,0.283-0.04,0.424-0.06
				c-0.001,0.582-0.003,1.163-0.003,1.745C346.153,306.673,346.214,306.687,346.214,306.687z"/>
			<path d="M334.724,394.429c-0.659,0.938-1.318,1.875-1.977,2.813c-0.085-0.06-0.17-0.119-0.255-0.179
				c0.618-0.924,1.237-1.849,1.855-2.774C334.473,394.336,334.598,394.383,334.724,394.429z"/>
			<path d="M320.275,373.1c0.688-0.372,1.375-0.745,2.063-1.117c0.023,0.039,0.046,0.078,0.069,0.116
				c-0.687,0.372-1.375,0.745-2.062,1.117C320.321,373.177,320.298,373.139,320.275,373.1z"/>
			<path d="M316.694,369.145c-0.339,0.184-0.678,0.367-1.018,0.551c-0.023-0.039-0.046-0.078-0.069-0.118
				c0.367-0.199,0.734-0.398,1.102-0.597C316.705,369.036,316.7,369.09,316.694,369.145z"/>
			<path d="M320.785,385.056c-0.611,0.331-1.222,0.662-1.833,0.993c-0.038-0.089-0.077-0.177-0.115-0.266
				c0.653-0.241,1.306-0.481,1.973-0.718C320.823,385.068,320.785,385.056,320.785,385.056z"/>
			<path d="M338.41,344.885c-0.67-0.403-1.385-0.747-2-1.221c-1.76-1.352-3.479-2.757-5.083-4.306
				c2.522,1.645,5.068,3.255,7.066,5.566L338.41,344.885z"/>
			<path d="M321.593,352.588c-0.97-0.094-1.94-0.187-2.91-0.281c1.044-0.346,2.03-0.345,2.895,0.336
				C321.578,352.642,321.593,352.588,321.593,352.588z"/>
			<path d="M342.736,348.661c-0.877-0.782-1.754-1.564-2.631-2.346l-0.023,0.051c1.236,0.378,2.111,1.161,2.634,2.342
				C342.717,348.711,342.736,348.661,342.736,348.661z"/>
			<path d="M320.474,347.279c0.643,0.269,1.285,0.537,1.928,0.806c-0.044,0.109-0.087,0.218-0.13,0.327
				c-0.644-0.244-1.288-0.488-1.932-0.733C320.384,347.546,320.429,347.413,320.474,347.279z"/>
			<path d="M340.106,346.316c-0.565-0.477-1.131-0.953-1.696-1.43c0,0-0.018,0.04-0.018,0.04c0.564,0.48,1.127,0.961,1.691,1.441
				C340.083,346.367,340.106,346.316,340.106,346.316z"/>
			<path d="M316.85,351.81c-0.367-0.098-0.735-0.195-1.102-0.292c0.013-0.092,0.026-0.184,0.039-0.276
				c0.381,0.078,0.762,0.156,1.143,0.234C316.903,351.587,316.876,351.699,316.85,351.81z"/>
			<path d="M319.229,347.151c-0.393-0.13-0.787-0.259-1.18-0.389c0.031-0.093,0.062-0.186,0.094-0.279
				c0.39,0.14,0.78,0.28,1.17,0.421C319.285,346.986,319.257,347.069,319.229,347.151z"/>
			<path d="M329.024,337.326c0.347,0.27,0.694,0.541,1.041,0.811c-0.055,0.074-0.109,0.148-0.164,0.221
				c-0.346-0.248-0.691-0.496-1.037-0.743C328.917,337.519,328.971,337.422,329.024,337.326z"/>
			<path d="M341.478,358.161c-0.517-0.081-1.02-0.161-1.523-0.24c0.007-0.094,0.013-0.188,0.019-0.283
				c0.497,0.051,0.994,0.098,1.489,0.164C341.48,357.805,341.472,357.989,341.478,358.161z"/>
			<path d="M333.944,328.425c-0.367-0.551-0.735-1.102-1.102-1.654c0.084-0.047,0.169-0.095,0.253-0.142
				c0.282,0.608,0.563,1.216,0.843,1.834C333.936,328.474,333.944,328.425,333.944,328.425z"/>
		</g>
	</g>
</g>
</svg>

